<svg xmlns="http://www.w3.org/2000/svg"><symbol id="mecha-stilts" viewBox="0 0 256 256"><path d="M79.1 157.4h13.2v13H79.1zm17.4 0h20.7v13H96.5zm24.8 0h13.2v13h-13.2zm17.4-.1l20.7.1v12.9h-20.7zm34.8-44.8h-91c1-26.7 21.3-41.4 45.5-41.4s44.5 14.7 45.5 41.4zm-10 44.8l13.2.1v12.9h-13.2zm-96.8-40.7v36.7h122.6v-36.7H66.7zm110.7 26.7H127c-1.1 0-2.1-.9-2.1-2.1 0-1.1.9-2.1 2.1-2.1h50.5c1.2 0 2.1.9 2.1 2.1-.1 1.2-1 2.1-2.2 2.1z"/><path d="M128 2L18.9 65v126L128 254l109.1-63V65L128 2zm65.4 112.5v40.8c.1 1.1-.8 2-1.8 2.1H181v13h10.3c1.1 0 2.1.9 2.1 2.1s-.9 2.1-2.1 2.1H64.7c-1.1 0-2.1-.9-2.1-2.1s.9-2.1 2.1-2.1H75v-13H64.7c-1.1.1-2-.8-2.1-1.8v-41c-.1-1.1.8-2 1.8-2.1h13.9C79.4 83 101.3 67 128 67s48.6 16.1 49.7 45.5h13.7c1.1-.1 2 .8 2.1 1.8-.1.1-.1.2-.1.2z"/></symbol><symbol id="space-bubbles" viewBox="0 0 256 256"><path d="M103.7 157.9l-34.9 18.4-2.9-4.2 18.2-21.4h13.8zm11.4 13.7h-28l19.6-10.4zm37.7-21l-17.3 21h-15l-17.3-21zm16.1 21h-28.1l8.5-10.4zm5.1-55.7c0 5.3-.9 10.7-2.5 15.8H86.8c-2.1-4.8-2.5-10.3-2.4-15.8 1.2-23 19.5-41.3 42.5-42.5 24.8-1.3 45.8 17.8 47.1 42.5zM72.6 135.8h113.2v10.8H72.6zm117.5 36.6l-2.9 3.9-35.2-18.4 6.2-7.3h13.6z"/><path d="M128 3.1l-109.1 63v126l109.1 63 109.1-63v-126L128 3.1zm66.2 170.4l-4.7 6.8c-.6.8-1.7 1-2.6.6l-9.9-5.2H78.9l-9.9 5.2c-.9.4-2 .2-2.6-.6l-4.7-6.8c-.5-.8-.4-1.8.2-2.5L79 150.7h-8.5c-1.1.1-2-.8-2.1-1.8v-15.2c-.1-1.1.8-2 1.8-2.1h12.2c-1.5-5.1-2.3-10.4-2.3-15.8 1.3-27 24.3-47.9 51.3-46.5 25.2 1.2 45.3 21.4 46.5 46.5.1 5.3-.7 10.7-2.3 15.8h12.1c1.1-.1 2 .8 2.1 1.8v15.2c.1 1.1-.8 2-1.8 2.1h-10.8l17 20.2c.6.8.6 1.9 0 2.6z"/></symbol><symbol id="super-domes" viewBox="0 0 256 256"><path d="M93.2 127.6H71c6.4-25.1 28.6-44.4 55.1-46l-32.9 46zm5.1 0l29.8-41.9v41.9zm-25.8 19.6h55.6v23H72.5zm59.7-.1h9.3v23h-9.3zm13.5 0h42.2v23h-42.2zm43.7-19.6h-57.1v-46c27 1 50.3 19.7 57.1 46zm-128.8 4.2h139.1v11.4H60.6z"/><path d="M130.2 1.8l-109.1 63v126l109.1 63 109.1-63v-126l-109.1-63zm89.1 145.4H192v25.1c.1 1.1-.8 2-1.8 2.1H70.4c-1.1.1-2-.8-2.1-1.8v-25.3H41c-1.1 0-2.1-.9-2.1-2.1 0-1.1.9-2.1 2.1-2.1h15.5v-13.5c-.1-1.1.8-2 1.8-2.1h8.3c7.1-29.3 33.2-50 63.3-50.2.2-.2.5-.2.8 0 30 .3 55.9 21 62.9 50.2h8c1.1-.1 2 .8 2.1 1.8V143h15.5c1.1 0 2.1.9 2.1 2.1 0 1.2-.9 2.1-2 2.1z"/></symbol></svg>